<?xml version="1.0" encoding="utf-8"?>
<!-- Generator: Adobe Illustrator 20.1.0, SVG Export Plug-In . SVG Version: 6.00 Build 0)  -->
<svg version="1.1" id="Layer_1" xmlns="http://www.w3.org/2000/svg" xmlns:xlink="http://www.w3.org/1999/xlink" x="0px" y="0px"
	 viewBox="0 0 400 400" style="enable-background:new 0 0 400 400;" xml:space="preserve">
<style type="text/css">
	.st0{fill:#757576;stroke:#757576;stroke-miterlimit:10;}
</style>
<g>
	<path class="st0" d="M96.8,93.8h-6.5l17.2-42.6h6.6l17.2,42.6h-6.5l-4.4-11.5h-19.2L96.8,93.8z M110.7,58l-7.4,19.2h15.1L110.9,58
		H110.7z"/>
	<path class="st0" d="M147.7,94.8c-4.1,0-7.6-1.5-10.5-4.5c-2.9-3.1-4.3-6.7-4.3-11s1.4-8,4.3-11c2.9-3,6.4-4.5,10.5-4.5
		c2.3,0,4.4,0.5,6.3,1.4c1.9,0.9,3.3,2.1,4.4,3.6h0.3l-0.3-4V51.2h5.9v42.6h-5.6v-4h-0.3c-1,1.5-2.5,2.7-4.4,3.6
		C152.1,94.3,150,94.8,147.7,94.8z M148.7,89.8c2.9,0,5.2-1,7.1-2.9c1.9-1.9,2.9-4.5,2.9-7.6c0-3.1-1-5.6-2.9-7.6
		c-1.9-2-4.2-3-7.1-3c-2.8,0-5.2,1-7.1,3c-1.9,2-2.9,4.5-2.9,7.6c0,3.1,1,5.6,2.9,7.6C143.5,88.8,145.9,89.8,148.7,89.8z"/>
	<path class="st0" d="M178.9,54.6c0,1.1-0.4,2-1.2,2.7c-0.8,0.8-1.8,1.1-2.9,1.1c-1.1,0-2.1-0.4-2.9-1.1c-0.8-0.8-1.2-1.7-1.2-2.7
		s0.4-2,1.2-2.7c0.8-0.8,1.8-1.1,2.9-1.1c1.1,0,2.1,0.4,2.9,1.1C178.5,52.6,178.9,53.6,178.9,54.6z M177.7,64.7v29.1h-5.9V64.7
		H177.7z"/>
	<path class="st0" d="M197.3,94.3c-2.5,0-4.7-0.7-6.3-2.2c-1.7-1.5-2.5-3.5-2.6-6.1V69.7H183v-5h5.5v-8.9h5.9v8.9h7.6v5h-7.6v14.5
		c0,1.9,0.4,3.3,1.2,4c0.8,0.7,1.7,1,2.7,1c0.5,0,0.9,0,1.4-0.1c0.4-0.1,0.9-0.2,1.2-0.4l1.8,4.9C201.2,94,199.4,94.3,197.3,94.3z"
		/>
	<path class="st0" d="M235.7,64.7l-19.5,42h-6l7.3-14.7l-12.9-27.3h6.4l9.3,20.9h0.1l9-20.9H235.7z"/>
	<path class="st0" d="M249.8,63.7c4.3,0,7.7,1.1,10.2,3.2c2.5,2.2,3.8,5.1,3.8,8.9v18h-5.6v-4h-0.3c-2.4,3.3-5.6,5-9.7,5
		c-3.4,0-6.3-1-8.6-2.9c-2.3-1.9-3.5-4.3-3.5-7.1c0-3,1.2-5.4,3.7-7.2c2.4-1.8,5.7-2.7,9.8-2.7c3.5,0,6.3,0.6,8.6,1.8v-1.2
		c0-1.9-0.8-3.5-2.4-4.8c-1.6-1.3-3.5-2-5.7-2c-3.3,0-5.9,1.3-7.8,3.9l-5.2-3C240,65.6,244.2,63.7,249.8,63.7z M242.2,84.9
		c0,1.4,0.6,2.6,1.9,3.6c1.3,1,2.8,1.4,4.5,1.4c2.5,0,4.7-0.9,6.6-2.6c1.9-1.7,2.9-3.7,2.9-6c-1.8-1.3-4.4-2-7.6-2
		c-2.4,0-4.4,0.5-5.9,1.6C243,82,242.2,83.3,242.2,84.9z"/>
</g>
</svg>
